<?xml version="1.0" encoding="utf-8"?>
<!-- Generator: Adobe Illustrator 28.0.0, SVG Export Plug-In . SVG Version: 6.00 Build 0)  -->
<svg version="1.1" id="Lag_1" xmlns="http://www.w3.org/2000/svg" xmlns:xlink="http://www.w3.org/1999/xlink" x="0px" y="0px"
	 viewBox="0 0 24 24" style="enable-background:new 0 0 24 24;" xml:space="preserve">
<style type="text/css">
	.st0{fill:#FFFFFF;}
</style>
<g>
	<path class="st0" d="M19.1,4.9C15.2,1,8.8,1,4.9,4.9S1,15.2,4.9,19.1s10.2,3.9,14.1,0c0,0,0,0,0,0C23,15.2,23,8.8,19.1,4.9z
		 M17.7,17.7c-3.1,3.1-8.2,3.1-11.3,0s-3.1-8.2,0-11.3c3.1-3.1,8.2-3.1,11.3,0C20.8,9.5,20.8,14.5,17.7,17.7z"/>
	<polygon class="st0" points="9,10 12.6,10 8.3,14.3 9.7,15.7 14,11.4 14,15 16,15 16,8 9,8 	"/>
</g>
</svg>
